<?xml version="1.0" standalone="no"?>
<!DOCTYPE svg PUBLIC "-//W3C//DTD SVG 20010904//EN"
 "http://www.w3.org/TR/2001/REC-SVG-20010904/DTD/svg10.dtd">
<svg version="1.0" xmlns="http://www.w3.org/2000/svg"
 width="582.000000pt" height="527.000000pt" viewBox="0 0 582.000000 527.000000"
 preserveAspectRatio="xMidYMid meet">

<g transform="translate(0.000000,527.000000) scale(0.100000,-0.100000)"
fill="#000000" stroke="none">
<path d="M2700 5074 c-441 -41 -834 -183 -1180 -427 -534 -377 -888 -964 -976
-1617 -18 -141 -18 -458 1 -607 52 -395 213 -792 448 -1103 l65 -85 -379 -3
-378 -2 -7 -36 c-3 -19 -5 -36 -3 -38 2 -2 103 -63 224 -136 121 -73 223 -136
228 -140 4 -4 -98 -71 -227 -149 l-234 -142 11 -35 10 -34 504 0 503 0 0 -80
0 -80 1600 0 1600 0 0 80 0 80 503 0 504 0 10 35 11 34 -217 132 c-119 73
-224 137 -233 144 -14 9 18 32 216 154 l234 143 -11 34 -10 34 -407 2 -407 3
73 98 c231 310 387 697 439 1090 19 151 20 457 0 604 -76 580 -366 1116 -805
1487 -347 294 -742 473 -1190 541 -102 15 -429 27 -520 19z m500 -90 c384 -55
739 -203 1058 -442 281 -209 511 -489 672 -817 296 -602 308 -1310 32 -1932
-73 -164 -171 -324 -302 -492 l-55 -71 -240 2 c-132 2 -248 7 -257 12 -17 7
-18 0 -18 -83 l0 -91 -502 1 -503 1 85 18 c191 39 307 79 460 155 449 225 772
646 880 1150 34 158 39 430 10 600 -61 365 -221 668 -487 926 -246 238 -526
380 -876 446 -127 23 -427 23 -554 0 -375 -70 -666 -227 -930 -500 -214 -222
-356 -495 -425 -815 -20 -93 -23 -135 -23 -327 0 -194 3 -232 23 -325 51 -224
127 -409 245 -588 234 -357 613 -617 1032 -707 44 -9 96 -21 115 -25 19 -4
-178 -8 -437 -9 l-473 -1 0 91 c0 83 -1 90 -17 83 -10 -5 -139 -10 -288 -11
l-270 -3 -55 71 c-137 176 -234 337 -315 524 -263 607 -246 1305 45 1900 335
685 980 1153 1735 1259 61 9 135 18 165 20 98 7 362 -4 470 -20z m-46 -695
c562 -91 1054 -513 1232 -1055 135 -414 104 -836 -91 -1224 -65 -129 -194
-316 -207 -300 -3 3 -21 104 -41 225 -20 121 -57 345 -83 499 -35 210 -43 280
-34 286 8 5 0 15 -24 29 -25 16 -35 29 -33 44 1 15 -3 21 -13 18 -8 -2 -28 -6
-44 -9 -28 -4 -29 -3 -23 24 4 16 9 39 13 52 6 23 3 22 -75 -17 l-81 -41 0 75
c0 41 -3 75 -7 75 -4 0 -22 -5 -40 -12 -32 -12 -45 -28 -22 -28 8 0 7 -5 -1
-15 -11 -13 -10 -14 5 -9 21 8 20 -18 -10 -371 -8 -99 -15 -222 -15 -272 l0
-93 -37 -24 c-53 -35 -106 -52 -236 -76 -62 -11 -131 -28 -155 -36 -24 -9 -45
-14 -48 -11 -10 10 10 90 30 120 33 50 106 92 198 116 134 35 151 41 93 34
-90 -10 -200 -51 -255 -94 -37 -29 -50 -36 -46 -23 27 87 43 331 28 434 -9 64
-9 65 21 93 41 39 72 53 183 87 52 16 124 46 159 66 70 39 89 56 28 26 -21
-11 -90 -36 -153 -57 -63 -21 -132 -46 -153 -57 -22 -11 -42 -16 -45 -12 -4 4
-1 9 7 12 31 11 73 59 80 92 5 25 13 36 28 38 24 4 36 26 27 54 -5 17 -7 17
-35 -6 -47 -40 -101 -50 -254 -51 -131 0 -144 2 -197 27 -32 15 -58 32 -58 38
0 6 -4 8 -10 5 -5 -3 -10 -17 -10 -29 0 -21 12 -41 80 -129 12 -15 32 -30 46
-33 13 -3 24 -10 24 -15 0 -5 -14 -2 -30 6 -17 9 -76 32 -130 51 -132 45 -183
77 -213 133 l-25 44 -31 -61 c-17 -33 -34 -63 -39 -66 -5 -3 -35 1 -68 9 -77
19 -72 20 -82 -17 -7 -27 -14 -34 -39 -36 -20 -2 -37 -12 -47 -28 -12 -18 -25
-24 -51 -24 -48 0 -60 -18 -74 -107 -7 -43 -21 -112 -32 -154 -10 -41 -19 -86
-19 -98 0 -13 -9 -51 -19 -85 -26 -84 -51 -196 -51 -228 0 -15 -4 -29 -8 -32
-5 -3 -19 -49 -32 -102 -13 -53 -28 -101 -34 -107 -15 -16 -33 -65 -64 -174
-15 -51 -30 -93 -34 -93 -13 0 -170 184 -217 255 -199 297 -295 673 -262 1023
57 583 413 1080 942 1312 288 127 585 163 913 109z m-614 -1383 c29 -47 69
-70 202 -115 151 -52 148 -50 159 -77 4 -13 15 -24 24 -24 17 0 18 -15 6 -75
-8 -38 -9 -39 -18 -16 -7 18 -35 34 -117 67 -62 25 -129 61 -158 84 -51 40
-68 48 -68 31 0 -26 47 -54 195 -116 50 -21 106 -50 125 -65 35 -27 35 -27 32
-101 -4 -96 11 -200 35 -235 10 -15 17 -36 15 -45 -2 -10 3 -19 10 -22 7 -2 5
-3 -5 -1 -15 2 -17 -6 -16 -54 1 -53 -7 -111 -32 -241 l-11 -54 -39 73 c-44
85 -96 142 -154 170 -24 12 -89 26 -160 34 -147 18 -160 22 -172 49 -11 25 27
435 51 555 19 92 56 212 67 212 4 0 17 -16 29 -34z m-137 -77 c12 -7 23 -13
24 -14 2 0 -6 -46 -17 -101 -45 -234 -65 -517 -40 -564 10 -18 23 -22 188 -54
81 -16 94 -22 67 -32 -10 -4 -20 -1 -25 6 -4 7 -14 10 -21 7 -8 -3 2 -12 26
-21 22 -9 49 -22 60 -28 18 -10 19 -10 6 5 -18 22 1 23 34 1 13 -8 22 -21 19
-29 -9 -23 13 -26 39 -5 l25 20 26 -31 c14 -17 24 -35 20 -40 -3 -5 2 -9 10
-9 9 0 16 -4 16 -10 0 -5 -7 -10 -15 -10 -14 0 -19 12 -16 33 1 4 -10 5 -24 3
-20 -4 -25 -1 -23 12 2 9 8 20 13 24 7 5 6 8 -1 8 -5 0 -18 -6 -27 -12 -15
-12 -14 -15 3 -37 11 -13 20 -18 20 -12 0 6 7 8 16 4 8 -3 13 -12 10 -20 -7
-16 20 -73 34 -73 14 0 21 16 14 34 -8 22 -28 20 -20 -1 5 -15 4 -15 -9 1 -8
11 -15 25 -14 30 0 6 3 6 5 -1 3 -7 11 -10 19 -7 17 7 42 -38 48 -86 2 -19 2
-27 0 -17 -4 15 -7 16 -19 6 -12 -9 -31 6 -108 83 -115 118 -149 133 -269 126
-94 -7 -134 -21 -270 -96 -54 -30 -100 -52 -102 -50 -3 3 9 45 26 94 41 121
102 399 139 634 17 107 34 205 37 218 6 25 39 30 76 11z m1315 -126 c-26 -179
-33 -343 -19 -463 7 -58 15 -113 17 -122 6 -22 -56 -91 -110 -123 -60 -35
-141 -53 -294 -65 -193 -14 -256 -33 -319 -93 -18 -17 -33 -27 -33 -23 0 17
53 105 61 101 4 -3 21 6 37 20 16 14 35 25 41 25 6 0 11 8 11 18 0 13 -2 14
-9 3 -5 -7 -15 -11 -22 -9 -8 3 3 14 28 26 31 16 74 24 175 33 73 6 145 12
160 13 16 2 36 10 45 18 10 9 38 26 63 38 25 13 48 27 51 33 4 5 4 104 2 221
-5 202 1 300 27 397 8 27 19 40 52 56 23 12 45 20 48 18 3 -2 -2 -57 -12 -122z
m-1438 61 c0 -9 -14 -111 -31 -228 -36 -252 -74 -431 -124 -584 -20 -63 -34
-116 -31 -120 3 -3 17 0 31 6 32 15 38 15 30 1 -4 -6 2 -5 13 2 12 7 18 18 15
24 -3 5 0 4 8 -2 20 -20 48 -16 46 6 0 11 -5 17 -9 15 -5 -3 -6 -10 -3 -15 7
-10 -8 -12 -18 -2 -13 12 32 34 60 28 15 -3 22 -2 16 1 -22 10 -14 23 27 44
42 21 60 20 60 -6 0 -16 -16 -19 -25 -4 -3 6 -1 10 6 10 7 0 10 3 6 6 -3 3
-14 1 -24 -5 -10 -6 -12 -11 -5 -11 6 0 12 -4 12 -10 0 -5 -14 -7 -32 -4 l-33
5 26 -15 c26 -15 69 -12 69 5 0 5 7 9 15 9 8 0 15 -4 15 -10 0 -5 10 -11 23
-11 18 -1 16 -3 -8 -9 l-30 -8 35 -1 c50 -1 110 10 110 21 0 5 -19 8 -41 6
-45 -3 -67 17 -27 25 13 3 0 5 -29 4 -28 -1 -49 1 -46 6 2 4 -1 7 -6 7 -6 0
-11 5 -11 10 0 18 153 11 222 -10 73 -22 124 -66 114 -98 -5 -13 -1 -22 10
-26 24 -9 29 0 13 21 -13 16 -12 17 4 4 9 -7 17 -20 17 -27 0 -8 4 -14 9 -14
5 0 11 -6 14 -14 5 -12 -2 -12 -46 0 -74 20 -216 17 -348 -6 -119 -21 -215
-36 -286 -43 -40 -5 -43 -4 -43 19 0 34 63 349 115 579 24 105 53 245 65 313
16 85 27 122 36 122 8 0 14 -7 14 -16z m1525 -1 c-16 -39 -17 -448 -1 -628 17
-203 19 -195 -60 -241 -81 -48 -166 -63 -489 -89 -104 -8 -204 -19 -222 -24
-24 -7 -33 -6 -37 5 -3 7 -2 13 2 11 4 -1 8 3 10 8 3 11 72 55 85 55 5 0 5 -4
2 -10 -7 -12 12 -12 40 0 18 8 18 9 -5 10 -24 1 -24 2 -4 10 22 9 231 40 268
40 48 0 1 -10 -108 -24 -65 -8 -121 -17 -124 -21 -4 -4 9 -4 28 -1 37 6 221
26 241 26 6 0 9 7 5 15 -6 17 5 20 20 5 6 -6 27 -4 59 5 28 7 43 14 35 14 -12
1 -11 4 3 12 10 6 25 8 33 5 8 -3 13 -2 10 2 -6 10 63 36 71 28 4 -3 0 -6 -8
-6 -9 0 -24 -7 -35 -15 -19 -16 -14 -14 73 22 19 8 5 23 -15 16 -15 -5 -15 -4
-1 8 30 27 51 72 51 108 0 20 -4 102 -7 182 -11 218 17 455 57 480 21 14 31
10 23 -8z m-1118 -696 c21 -12 20 -12 -17 -13 -33 -1 -38 1 -29 12 14 17 18
17 46 1z m-657 -172 c-11 -55 -25 -130 -33 -168 -8 -37 -12 -69 -8 -70 8 -5
256 19 406 38 128 16 230 18 305 6 42 -6 38 -7 -60 -20 -58 -7 -112 -17 -120
-21 -9 -5 -76 -13 -150 -19 -312 -26 -431 -33 -435 -29 -3 2 19 107 48 233 45
200 53 224 58 190 4 -24 0 -79 -11 -140z m723 141 c16 -13 16 -14 0 -27 -10
-7 -15 -9 -10 -4 4 4 0 17 -10 27 -19 21 -6 24 20 4z m242 -56 c5 -29 2 -39
-16 -55 -21 -19 -22 -19 -16 -2 4 10 7 42 7 70 1 56 13 49 25 -13z m929 18 c3
-18 8 -81 12 -139 l6 -107 -69 -6 c-37 -3 -113 -8 -168 -12 -136 -8 -335 -32
-415 -50 -98 -22 -170 -32 -164 -22 3 4 -7 8 -22 8 -47 0 -15 17 85 45 62 18
121 28 173 29 43 0 78 5 78 9 0 5 8 6 18 3 10 -4 61 3 113 13 76 16 174 27
304 36 6 0 9 33 6 86 -2 56 1 89 8 93 6 4 11 16 11 27 0 32 19 21 24 -13z
m-411 -75 c-7 -2 -19 -2 -25 0 -7 3 -2 5 12 5 14 0 19 -2 13 -5z m434 -316
l53 -8 -33 -27 c-17 -15 -45 -39 -62 -54 -169 -151 -457 -292 -695 -342 -270
-57 -567 -40 -825 45 -122 41 -280 117 -384 186 l-85 57 64 12 c189 36 222 39
490 39 l275 0 65 -39 c47 -28 80 -40 118 -44 l52 -4 71 75 c52 56 76 75 91 72
11 -3 23 -6 25 -9 3 -2 26 2 51 10 112 36 185 43 432 41 135 0 269 -5 297 -10z
m-2440 -453 c-10 -11 -171 -84 -184 -84 -10 0 -13 -58 -15 -237 l-3 -238 -427
-3 c-389 -2 -464 2 -413 22 34 13 425 258 421 264 -2 4 -101 66 -220 137 -118
72 -215 133 -216 138 0 4 239 7 532 7 292 0 529 -3 525 -6z m3863 -1 c-1 -5
-100 -68 -221 -142 -121 -73 -217 -137 -212 -141 8 -8 272 -170 380 -234 29
-17 53 -34 53 -39 0 -4 -192 -6 -427 -5 l-428 3 -3 238 c-1 153 -6 237 -13
237 -12 0 -170 70 -183 82 -6 4 229 8 522 8 293 0 532 -3 532 -7z m-3712 -50
c-3 -27 -5 -28 -68 -30 l-65 -3 55 30 c70 37 82 38 78 3z m2582 -3 l55 -30
-65 3 c-63 2 -65 3 -67 30 -2 34 8 34 77 -3z m198 -192 l-3 -93 -241 -3 -241
-2 -13 31 c-15 36 -4 64 26 64 10 0 20 8 22 18 3 13 -3 17 -27 17 -49 0 -77
-61 -51 -111 10 -18 6 -19 -92 -19 l-103 1 -18 39 c-12 26 -33 49 -61 65 -87
51 -166 20 -166 -65 0 -40 -1 -41 -32 -38 -27 2 -41 15 -85 73 -54 72 -67 83
-78 66 -3 -6 17 -39 45 -73 l50 -63 -240 -3 c-232 -2 -240 -3 -240 -22 0 -19
7 -20 140 -20 77 0 140 -3 140 -7 0 -5 3 -17 6 -29 3 -13 -1 -28 -11 -38 -21
-20 -45 -21 -45 -1 0 12 -13 15 -55 15 l-56 0 16 -30 c18 -35 19 -72 3 -88
-19 -19 -48 6 -77 68 -19 42 -30 57 -39 51 -18 -11 18 -104 55 -143 51 -53
108 -23 108 58 0 38 3 44 22 44 16 0 23 -8 28 -30 7 -31 56 -80 81 -80 9 0 24
5 35 10 17 10 19 7 19 -25 0 -28 4 -35 20 -35 19 0 20 7 20 130 l0 130 35 0
35 0 0 -130 c0 -109 2 -130 15 -130 13 0 15 21 15 130 l0 130 41 0 40 0 -2
-127 c-2 -113 0 -128 14 -131 15 -3 17 11 17 127 l0 131 100 0 c93 0 100 -1
100 -20 0 -17 -7 -20 -42 -20 -91 0 -124 -45 -94 -125 10 -26 29 -59 41 -73
21 -24 24 -25 30 -10 4 11 -2 29 -15 48 -12 17 -24 49 -27 70 l-6 40 57 0 56
0 0 -85 c0 -69 3 -85 15 -85 13 0 15 21 15 130 l0 130 44 0 c47 0 47 1 37 -62
0 -5 -8 -8 -16 -8 -24 0 -18 -31 12 -62 15 -15 30 -28 35 -28 4 0 8 36 8 80
l0 80 30 0 30 0 0 -130 c0 -109 2 -130 15 -130 13 0 15 21 15 130 l0 130 40 0
40 0 0 -45 c0 -33 -4 -45 -15 -45 -21 0 -19 -26 7 -60 25 -35 38 -38 38 -10 0
17 7 20 40 20 l40 0 0 -60 c0 -47 3 -60 15 -60 16 0 17 13 15 173 l-1 87 49 0
c50 0 62 -9 62 -45 0 -20 -31 -47 -46 -41 -35 13 2 -84 41 -110 22 -14 32 -16
56 -7 28 11 29 11 29 -23 0 -27 4 -34 20 -34 19 0 20 7 20 130 0 124 1 130 20
130 20 0 20 -5 18 -167 l-3 -168 -1525 0 -1525 0 -3 190 c-2 105 0 232 3 283
l7 92 1524 0 1525 0 -3 -92z m-836 -17 c25 -10 78 -59 78 -73 0 -5 -39 -7 -87
-6 -84 3 -88 4 -91 26 -7 48 44 75 100 53z m-342 -191 c0 -67 -1 -70 -29 -85
-27 -13 -31 -13 -51 3 l-23 18 28 28 c22 22 26 34 23 67 -3 37 -2 39 24 39 28
0 28 0 28 -70z m880 25 l0 -45 -40 0 -40 0 0 45 0 45 40 0 40 0 0 -45z m220
-24 c0 -61 -3 -72 -22 -85 -29 -20 -34 -20 -58 4 -19 19 -19 20 6 45 21 21 25
34 22 66 -3 37 -2 39 24 39 28 0 28 0 28 -69z"/>
<path d="M2604 4793 c3 -43 9 -122 12 -177 l7 -99 60 7 c33 3 80 6 103 6 l44
0 0 40 0 40 -59 0 -59 0 -6 65 c-3 36 -9 94 -12 130 l-6 65 -45 0 -46 0 7 -77z"/>
<path d="M3087 4704 c-48 -86 -86 -158 -85 -160 2 -2 23 -6 46 -10 38 -6 42
-4 53 20 14 29 26 31 98 15 45 -9 50 -13 55 -43 6 -30 10 -34 49 -39 23 -3 42
-5 43 -4 5 6 -56 351 -63 357 -4 4 -31 11 -58 15 l-51 6 -87 -157z m148 2 l7
-78 -44 7 c-23 4 -44 9 -46 10 -2 2 13 35 33 75 20 40 38 70 39 69 2 -2 7 -39
11 -83z"/>
<path d="M2408 4838 c-21 -6 -38 -15 -38 -21 0 -7 11 -52 25 -102 39 -141 32
-175 -39 -175 -35 0 -49 26 -81 145 -15 55 -28 101 -30 103 -5 6 -85 -19 -85
-26 0 -4 13 -54 29 -112 46 -170 65 -194 152 -192 86 2 162 48 175 104 6 30
-53 289 -65 287 -3 -1 -23 -6 -43 -11z"/>
<path d="M3492 4733 c-59 -38 -86 -96 -80 -172 3 -39 11 -68 28 -90 27 -39 90
-70 142 -71 34 0 37 3 51 44 l15 43 -44 -5 c-38 -4 -47 -1 -74 26 -43 44 -42
92 4 138 46 46 96 43 138 -9 16 -21 16 -20 32 18 21 49 17 59 -33 85 -59 29
-126 27 -179 -7z"/>
<path d="M1998 4700 c-36 -19 -36 -21 -49 -110 -7 -49 -15 -90 -19 -90 -3 0
-20 29 -38 65 l-32 65 -39 -20 -40 -20 33 -72 c18 -40 52 -110 75 -156 l41
-82 40 20 c22 11 40 23 40 25 0 3 -13 32 -30 65 -16 33 -30 62 -30 64 0 3 38
-15 84 -40 l84 -45 46 23 c25 12 46 25 46 28 0 3 -43 27 -95 53 -52 26 -95 53
-95 59 1 7 9 52 19 101 20 96 19 98 -41 67z"/>
<path d="M3763 4502 l-132 -116 40 -24 41 -24 23 22 24 23 53 -31 c49 -27 53
-32 53 -67 0 -33 4 -39 37 -56 l38 -19 4 22 c3 13 17 84 31 158 14 74 28 145
30 157 4 17 -4 27 -39 47 -25 14 -51 26 -58 25 -7 0 -72 -53 -145 -117z m150
-32 c-9 -36 -19 -69 -24 -74 -4 -5 -24 2 -45 15 l-37 23 59 52 c32 29 60 52
61 50 1 -1 -5 -31 -14 -66z"/>
<path d="M1621 4481 c-39 -32 -42 -23 46 -139 35 -45 63 -91 63 -102 0 -30
-37 -62 -68 -58 -20 2 -44 24 -93 86 -91 114 -82 108 -123 77 l-35 -27 70 -88
c90 -115 120 -140 168 -140 44 0 118 43 149 88 28 38 28 96 2 139 -15 26 -64
90 -144 190 -1 1 -16 -11 -35 -26z"/>
<path d="M4080 4314 c-58 -69 -105 -130 -105 -135 0 -12 103 -96 141 -114 44
-21 113 -19 150 4 77 47 115 150 81 218 -15 29 -141 153 -155 153 -4 0 -55
-57 -112 -126z m190 -80 c0 -64 -73 -117 -130 -94 -58 24 -57 33 11 116 l64
76 27 -33 c18 -21 28 -45 28 -65z"/>
<path d="M1305 4181 c-11 -5 -49 -39 -84 -77 l-64 -68 49 -44 c27 -24 87 -75
133 -115 l83 -71 24 29 c13 17 24 33 24 37 0 3 -21 25 -47 49 l-48 42 35 -7
c109 -22 123 -20 159 18 39 41 38 41 -61 51 l-66 6 1 44 c2 49 -19 80 -70 101
-36 16 -40 16 -68 5z m63 -130 c4 -22 -13 -51 -28 -51 -5 0 -23 12 -40 27
l-33 27 28 23 c24 22 29 23 49 10 11 -8 22 -24 24 -36z"/>
<path d="M4380 4039 c-69 -55 -129 -104 -134 -109 -4 -4 22 -45 59 -90 l68
-81 26 23 c14 13 27 23 29 24 1 0 -15 22 -35 48 l-37 48 23 19 c23 19 23 19
58 -24 20 -23 38 -40 42 -39 3 2 16 12 29 21 l23 17 -35 44 c-33 41 -34 46
-19 62 16 18 43 24 43 11 1 -5 15 -24 33 -44 l32 -37 29 23 29 23 -67 81 c-37
45 -68 81 -69 81 -1 0 -58 -45 -127 -101z"/>
<path d="M1063 3892 c-9 -15 -21 -32 -25 -39 -6 -7 19 -28 79 -64 140 -83 153
-101 112 -153 -28 -35 -45 -31 -167 41 -100 60 -95 60 -127 2 -13 -25 -13 -25
93 -89 80 -48 117 -64 154 -68 46 -4 50 -3 87 36 55 57 78 121 62 172 -13 43
-23 51 -158 134 l-93 55 -17 -27z"/>
<path d="M4575 3781 c-77 -26 -146 -49 -154 -52 -11 -4 -11 -11 4 -42 9 -20
18 -37 19 -37 3 0 167 56 191 66 11 4 -18 -28 -64 -72 -80 -76 -84 -81 -71
-104 7 -14 14 -26 15 -28 1 -1 49 7 105 18 57 11 105 18 107 16 2 -2 -33 -27
-77 -56 -44 -29 -83 -57 -86 -61 -4 -7 19 -62 31 -77 3 -4 285 198 285 204 0
3 -9 22 -19 43 l-20 38 -98 -18 c-54 -11 -104 -21 -110 -24 -7 -2 -13 -3 -13
-1 0 2 36 39 81 83 l81 79 -22 37 c-12 20 -27 37 -33 36 -7 0 -75 -22 -152
-48z"/>
<path d="M883 3455 c-102 -61 -113 -229 -19 -300 68 -52 167 -53 231 -3 62 49
86 179 45 246 -21 33 -118 89 -131 74 -7 -8 -49 -145 -49 -160 0 -12 56 -33
64 -25 3 4 6 12 6 19 0 7 5 25 10 40 10 26 11 26 30 9 32 -29 27 -90 -9 -126
-31 -31 -61 -36 -108 -18 -79 30 -99 106 -42 160 28 26 30 32 22 68 l-8 41
-42 -25z"/>
<path d="M4843 3356 c-69 -79 -74 -82 -148 -104 -61 -18 -76 -26 -71 -38 3 -9
9 -27 12 -40 7 -29 11 -29 95 -5 l66 19 102 -30 c56 -17 104 -28 106 -26 2 2
-2 24 -9 48 -14 48 -7 44 -115 66 -23 5 -23 7 22 52 l46 47 -12 42 c-7 23 -15
44 -17 46 -3 3 -37 -32 -77 -77z"/>
<path d="M950 2299 c-18 -43 -34 -79 -35 -79 -2 0 -16 32 -31 71 -15 38 -31
72 -36 75 -10 6 -68 -27 -68 -39 0 -4 23 -35 51 -69 27 -33 49 -62 47 -63 -2
-2 -36 3 -77 10 -41 8 -77 13 -80 11 -7 -4 -6 -74 1 -81 2 -2 37 3 77 11 41 7
76 12 78 10 2 -2 -21 -33 -51 -69 l-56 -65 36 -22 c19 -13 39 -19 43 -14 4 5
18 36 31 69 13 33 26 64 30 68 4 5 20 -23 36 -63 15 -39 31 -73 35 -76 9 -5
69 28 69 40 0 4 -23 35 -51 68 -29 32 -50 60 -48 62 4 4 103 -9 147 -19 20 -5
22 -2 22 40 l0 45 -42 -6 c-24 -3 -61 -10 -83 -15 -22 -4 -41 -7 -42 -5 -2 1
19 31 47 65 27 34 50 66 50 71 0 4 -15 17 -34 28 l-34 20 -32 -79z"/>
<path d="M4795 2307 c-15 -40 -31 -75 -34 -79 -4 -4 -20 26 -36 67 -17 41 -34
75 -38 75 -14 0 -67 -33 -67 -42 0 -4 22 -34 49 -66 28 -33 48 -62 45 -65 -3
-2 -22 -1 -42 3 -20 4 -54 11 -74 14 l-38 7 0 -45 c0 -44 1 -45 28 -40 98 18
127 22 130 19 2 -2 -19 -31 -47 -65 -28 -33 -51 -64 -51 -68 0 -13 62 -45 69
-36 4 5 21 40 36 77 16 37 31 64 35 60 4 -4 17 -35 30 -68 13 -33 27 -64 31
-69 4 -5 24 1 43 14 l36 22 -55 66 c-30 36 -54 67 -52 68 2 2 111 -14 145 -21
20 -5 22 -2 22 40 l0 46 -32 -6 c-18 -3 -54 -9 -80 -14 -27 -5 -48 -5 -48 -1
0 5 23 36 52 70 55 66 55 63 -3 95 l-26 14 -28 -72z"/>
<path d="M3131 4229 c-84 -61 -129 -225 -85 -310 19 -39 13 -46 -20 -22 -26
19 -46 60 -46 97 -1 19 -2 19 -11 4 -20 -35 -12 -120 18 -193 24 -59 28 -84
28 -160 -1 -96 -10 -124 -61 -184 -37 -44 -48 -38 -22 12 27 52 30 172 6 227
-16 34 -16 35 -17 8 -2 -51 -39 -128 -105 -217 -77 -103 -106 -163 -113 -235
-7 -65 8 -115 54 -183 35 -53 116 -126 95 -86 -6 11 -17 25 -25 31 -8 7 -27
40 -43 75 -41 90 -40 172 5 261 19 36 42 73 52 82 18 17 19 16 13 -14 -8 -38
1 -75 21 -96 14 -13 19 -13 49 5 60 35 114 102 132 165 18 62 16 211 -3 236
-5 7 -13 24 -16 36 -5 21 -3 23 20 17 14 -3 34 -16 44 -28 16 -20 18 -20 24
-5 4 10 -2 46 -14 80 -14 41 -21 85 -20 132 l1 71 18 -72 c21 -80 33 -106 90
-194 21 -33 42 -73 45 -89 4 -17 11 -32 16 -35 5 -4 9 -16 9 -28 1 -21 1 -21
15 3 8 14 14 36 15 49 0 18 3 22 11 14 18 -18 28 -184 12 -208 -7 -11 -13 -30
-13 -42 0 -13 -14 -53 -30 -90 -17 -36 -28 -68 -26 -70 2 -2 21 3 41 11 21 9
40 16 42 16 3 0 3 -22 1 -49 -6 -62 -35 -121 -99 -200 -40 -50 -45 -60 -22
-43 77 54 163 169 194 257 19 57 37 261 18 211 -7 -16 -17 -39 -23 -51 -14
-27 -74 -80 -82 -72 -3 3 7 33 21 68 21 48 28 87 32 159 5 90 4 99 -26 171
-17 42 -47 100 -67 130 l-35 54 2 -35 c2 -55 0 -70 -10 -70 -17 0 -80 137 -92
202 -11 58 -10 75 6 133 9 36 21 68 26 71 11 7 12 24 1 24 -5 0 -28 -14 -51
-31z"/>
<path d="M2804 3925 c3 -16 11 -54 17 -83 6 -30 8 -61 4 -69 -5 -14 -8 -13
-25 2 -24 22 -25 18 -4 -31 16 -38 16 -121 -1 -169 -12 -35 34 24 58 75 38 81
22 200 -38 283 l-17 22 6 -30z"/>
<path d="M1864 3819 c-4 -7 -3 -9 4 -5 5 3 13 0 15 -6 4 -9 6 -10 6 -1 1 17
-16 25 -25 12z"/>
<path d="M3835 3820 c-5 -8 -4 -11 3 -6 6 3 15 -6 20 -21 6 -16 11 -21 11 -12
1 8 -5 23 -12 34 -11 14 -16 15 -22 5z"/>
<path d="M1846 3785 c-3 -9 -6 -26 -5 -38 1 -14 4 -9 9 13 9 37 7 52 -4 25z"/>
<path d="M3821 3784 c0 -11 3 -14 6 -6 3 7 2 16 -1 19 -3 4 -6 -2 -5 -13z"/>
<path d="M1891 3764 c-1 -32 -22 -60 -35 -46 -5 4 -7 0 -6 -8 5 -31 -1 -46
-10 -25 -7 17 -9 16 -9 -10 -1 -16 -6 -37 -11 -45 -9 -13 -11 -13 -20 0 -8 11
-9 7 -4 -14 5 -21 4 -27 -5 -22 -6 4 -11 13 -11 20 0 8 -9 24 -20 37 -17 21
-21 22 -30 9 -5 -8 -10 -31 -10 -51 0 -29 -4 -36 -17 -35 -12 0 -18 -6 -19
-19 -1 -15 0 -16 3 -2 6 26 19 21 33 -14 8 -19 16 -27 22 -21 6 6 6 18 -2 31
-13 25 -10 106 5 106 6 0 17 -19 24 -42 15 -41 14 -43 -25 -125 -74 -151 -85
-173 -81 -158 2 8 -2 29 -9 45 -7 17 -13 24 -14 16 0 -11 -3 -11 -15 -1 -17
14 -35 5 -34 -18 1 -15 2 -15 6 1 7 27 26 16 46 -27 15 -31 16 -43 6 -76 -7
-22 -16 -40 -21 -40 -4 0 -8 1 -8 3 0 1 -9 27 -20 57 -16 46 -18 49 -15 20 4
-43 29 -103 38 -93 12 11 -20 -87 -33 -102 -6 -8 -9 -18 -6 -24 10 -15 -25
-111 -38 -104 -6 4 -5 -1 2 -10 11 -13 11 -27 2 -72 l-12 -57 -31 28 c-32 29
-32 29 2 -8 31 -34 33 -39 25 -80 -4 -23 -7 -47 -5 -53 1 -5 -1 -6 -6 -2 -4 5
-8 12 -8 15 -1 4 -11 23 -23 42 -25 40 -38 92 -27 112 6 10 5 11 -6 0 -13 -12
-7 -51 16 -105 6 -15 4 -17 -19 -11 -24 6 -26 4 -26 -25 0 -18 7 -47 14 -66 8
-19 13 -35 10 -35 -3 0 11 -16 31 -37 29 -30 35 -43 35 -80 0 -23 -4 -43 -8
-43 -14 0 -50 43 -67 80 l-16 35 6 -33 c6 -29 4 -32 -17 -30 -21 3 -23 -1 -21
-34 3 -57 37 -112 93 -153 42 -30 50 -42 50 -68 0 -26 34 -207 57 -304 3 -15
13 -23 25 -23 14 0 18 5 15 15 -9 23 -54 245 -62 303 -7 53 -7 53 34 89 39 33
78 90 68 99 -2 3 -10 -9 -17 -26 -13 -31 -72 -90 -91 -90 -6 0 -9 25 -8 60 1
33 4 58 7 55 6 -6 86 65 88 79 1 6 5 20 9 31 3 11 -3 4 -14 -17 -23 -40 -65
-78 -88 -78 -12 0 -14 8 -8 38 7 40 44 85 87 108 24 13 27 12 31 -6 4 -17 4
-16 3 2 -1 17 -6 22 -20 20 -19 -4 -19 -2 -3 22 9 14 17 29 17 33 0 4 -10 -6
-21 -24 -18 -28 -75 -73 -92 -73 -3 0 -3 17 0 38 7 41 67 115 99 120 25 5 32
12 11 12 -19 0 -23 15 -7 25 6 3 10 12 10 18 0 7 -12 -6 -28 -28 -15 -22 -31
-41 -37 -42 -5 -1 -19 -5 -29 -9 -17 -7 -18 -4 -12 26 3 19 16 45 29 58 25 27
71 54 81 47 3 -3 2 0 -3 7 -7 7 -4 19 9 36 11 14 20 30 20 36 0 6 -8 -2 -18
-19 -23 -37 -39 -51 -76 -65 -28 -10 -29 -10 -22 22 3 19 20 45 38 62 18 16
26 25 18 21 -8 -5 -23 -15 -32 -23 -16 -13 -18 -13 -18 1 0 9 4 18 9 21 5 3 7
14 4 24 -8 34 14 67 61 91 26 12 55 20 64 17 15 -5 15 -4 1 6 -14 9 -12 14 13
42 15 17 28 37 27 46 0 10 -3 8 -9 -6 -13 -32 -78 -84 -105 -84 -41 0 -26 54
21 76 18 9 21 12 7 8 -18 -4 -23 -1 -23 13 1 29 38 103 52 103 9 0 9 -3 -2
-10 -20 -13 -12 -12 33 4 32 11 35 14 21 20 -10 4 -20 3 -22 -2 -2 -6 -11 -8
-22 -5 -30 8 -1 64 41 79 74 27 89 11 37 -39 -22 -20 -26 -26 -11 -18 25 13
53 49 53 68 0 7 -11 13 -25 13 -25 0 -25 0 10 31 19 17 35 38 34 48 0 13 -2
13 -6 1 -10 -26 -37 -52 -68 -66 -24 -10 -26 -13 -10 -14 18 -1 17 -2 -4 -11
-13 -5 -26 -7 -29 -4 -3 3 0 5 7 5 7 0 9 4 6 10 -10 17 23 67 49 74 24 6 67
42 95 78 12 16 10 19 -10 27 -15 6 -18 10 -8 10 19 1 65 48 56 57 -3 4 8 16
25 28 17 11 33 28 35 36 3 10 1 9 -7 -3 -13 -19 -61 -47 -84 -47 -13 0 -14 4
-4 25 7 15 20 25 32 25 20 1 19 2 -3 14 -14 8 -28 22 -32 32 -6 15 -8 12 -8
-12z m39 -102 c0 -13 -32 -39 -57 -46 -25 -8 -29 1 -10 25 18 24 67 39 67 21z
m-44 -72 c12 0 12 -3 -1 -23 -15 -23 -95 -73 -95 -59 0 15 40 72 50 72 6 0 8
5 4 12 -5 8 -2 9 10 5 10 -4 24 -7 32 -7z m-236 -500 c-20 -13 -33 -13 -25 0
3 6 14 10 23 10 15 0 15 -2 2 -10z m-53 -247 c-9 -9 -20 -13 -24 -9 -4 4 -1
11 7 16 25 16 35 11 17 -7z m-95 -81 c7 -7 8 -12 4 -12 -5 0 -1 -11 8 -25 12
-18 14 -36 10 -65 l-7 -41 -22 21 c-12 11 -25 17 -30 13 -4 -5 -5 -3 -2 3 4 7
0 25 -8 40 -8 16 -15 41 -15 56 0 23 4 26 25 24 14 -2 31 -8 37 -14z m108 -16
c0 -2 -11 -11 -25 -20 -14 -9 -25 -13 -25 -8 0 5 10 14 23 20 27 13 27 13 27
8z m-15 -136 c-9 -15 -45 -32 -45 -22 0 5 10 14 23 20 29 14 29 14 22 2z
m-151 -71 c-4 -7 58 -55 69 -51 4 1 6 -1 5 -5 0 -5 2 -15 6 -24 4 -9 6 -37 4
-63 l-3 -46 -36 25 c-41 30 -74 83 -83 136 -6 34 -5 37 18 35 13 0 22 -4 20
-7z"/>
<path d="M3791 3746 c-22 -13 -23 -13 -3 -18 11 -3 25 -16 32 -28 12 -22 11
-23 -21 -17 -19 3 -28 3 -21 0 6 -2 9 -9 6 -15 -6 -10 33 -58 48 -58 5 0 -4
11 -19 24 -15 13 -25 27 -22 31 13 12 57 -7 67 -30 10 -21 8 -25 -19 -34 -25
-9 -28 -13 -20 -29 5 -10 18 -25 28 -33 11 -9 10 -4 -5 16 -22 27 -22 30 -5
36 10 4 25 8 33 8 12 1 12 -1 2 -8 -11 -6 -9 -9 5 -13 19 -5 57 -68 47 -77 -3
-3 -8 -1 -12 5 -9 13 -45 27 -38 15 3 -5 -1 -12 -9 -15 -14 -5 -14 -9 1 -31 9
-14 26 -31 38 -37 13 -7 9 1 -12 22 -18 18 -31 35 -28 37 3 3 21 2 41 -1 31
-6 40 -14 55 -49 12 -27 15 -44 9 -48 -7 -4 -5 -9 5 -12 8 -3 22 -20 31 -36
15 -30 15 -31 -4 -31 -11 0 -23 -5 -26 -10 -4 -7 3 -9 22 -5 15 3 22 2 15 -1
-10 -5 -8 -10 7 -20 26 -19 46 -85 28 -96 -8 -5 -7 -8 5 -8 13 0 22 -16 33
-57 9 -32 20 -71 25 -88 4 -16 8 -37 8 -45 0 -8 3 -24 8 -35 7 -18 6 -19 -12
-5 -18 14 -19 14 -1 -6 10 -12 19 -38 21 -58 2 -20 6 -39 10 -43 16 -17 4 -24
-14 -8 -11 10 -18 20 -15 23 2 2 -10 14 -28 26 -18 12 -41 38 -52 59 -17 33
-18 39 -5 47 13 8 12 10 -2 10 -31 0 -18 -50 25 -97 11 -13 17 -23 13 -23 -4
0 12 -15 35 -33 31 -23 45 -43 50 -67 4 -19 6 -37 4 -39 -11 -10 -73 40 -92
75 -26 46 -31 38 -6 -9 9 -18 17 -35 18 -39 0 -5 5 -9 10 -10 23 -6 68 -72 75
-108 4 -22 4 -40 0 -40 -22 0 -78 51 -97 90 -13 24 -23 38 -23 30 0 -8 9 -30
20 -47 13 -22 15 -33 8 -33 -7 0 -1 -7 12 -17 60 -39 80 -66 80 -105 0 -21 -4
-38 -10 -38 -5 0 -25 14 -43 30 -19 17 -41 30 -48 30 -8 0 0 -8 16 -19 17 -10
38 -28 49 -39 10 -12 22 -20 26 -17 3 2 8 -20 9 -50 1 -29 -3 -56 -8 -59 -6
-4 -8 -13 -5 -20 6 -17 -31 -240 -51 -310 -19 -63 -19 -66 3 -66 15 0 22 21
45 133 14 72 29 156 33 185 6 43 11 55 33 67 42 22 102 94 101 122 -1 4 -8 -5
-17 -22 -21 -41 -53 -74 -86 -92 -27 -14 -29 -14 -22 6 3 11 7 64 7 118 l1 98
35 35 c20 19 37 42 38 50 1 8 5 26 9 40 4 14 -2 6 -13 -16 -11 -23 -29 -48
-41 -56 -11 -8 -18 -18 -13 -23 4 -5 1 -5 -5 -1 -8 4 -13 27 -13 55 0 40 5 52
33 79 39 38 54 40 60 10 4 -20 4 -19 6 5 1 20 -4 27 -17 27 -10 0 -23 -5 -30
-12 -9 -9 -12 -9 -12 -1 0 7 5 15 10 18 6 3 10 11 10 18 0 6 -11 -4 -24 -23
-13 -19 -22 -38 -20 -42 2 -4 0 -9 -5 -12 -5 -3 -12 17 -16 45 -7 48 -5 53 26
86 19 20 27 32 19 28 -8 -5 -21 -17 -28 -27 -7 -10 -18 -16 -23 -12 -6 4 -1
17 13 32 20 24 20 25 1 9 -21 -18 -21 -18 -28 23 -6 35 -3 46 20 78 l27 37
-27 -29 c-30 -33 -48 -27 -19 6 13 16 14 19 2 10 -18 -15 -23 -10 -32 33 -5
23 -1 39 16 65 32 47 48 49 48 6 0 -19 -5 -47 -11 -63 -8 -22 -8 -25 2 -16 6
6 14 35 17 63 4 46 2 52 -17 57 -18 4 -21 13 -21 52 0 25 -4 52 -9 59 -4 7 -6
-11 -3 -41 3 -37 -1 -63 -12 -85 -9 -18 -17 -35 -17 -39 0 -5 -3 -10 -6 -13
-2 -3 -4 0 -2 5 1 6 -3 23 -9 38 -17 39 -15 67 6 108 11 22 15 44 11 59 -7 23
-7 23 -8 3 -1 -12 -6 -34 -13 -50 -6 -15 -10 -32 -9 -36 1 -5 -3 -6 -8 -2 -6
3 -17 27 -25 53 -8 26 -23 65 -34 87 -16 31 -18 44 -9 65 23 54 43 65 50 28 4
-23 4 -23 6 0 1 16 -6 26 -18 29 -14 4 -21 16 -24 42 -3 33 -4 32 -5 -10 -2
-54 -26 -93 -42 -69 -6 8 -9 30 -6 47 5 33 -7 53 -19 33 -4 -6 -16 6 -27 27
-22 42 -23 49 -13 78 6 18 5 18 -5 2 -10 -16 -14 -14 -36 18 -13 20 -22 46
-21 58 2 12 2 16 0 10 -7 -19 -17 -16 -33 11 -13 22 -17 23 -39 12z m180 -239
c-10 -9 -11 -8 -5 6 3 10 9 15 12 12 3 -3 0 -11 -7 -18z m190 -360 c-10 -9
-11 -8 -5 6 3 10 9 15 12 12 3 -3 0 -11 -7 -18z m-1 -434 c0 -18 -3 -17 -31
13 l-24 26 28 -13 c15 -7 27 -18 27 -26z m0 -123 c0 -15 -5 -12 -26 11 -19 22
-19 22 4 10 12 -6 22 -16 22 -21z"/>
<path d="M1790 3731 c-5 -11 -9 -35 -9 -53 1 -26 3 -28 6 -8 2 14 6 36 9 50 6
25 6 25 21 5 14 -17 15 -18 9 -2 -3 10 -6 21 -6 23 0 12 -21 1 -30 -15z"/>
<path d="M3895 3739 c-4 -6 -4 -13 -1 -16 3 -4 6 -1 6 5 0 29 20 8 28 -30 6
-24 10 -33 11 -21 2 48 -27 90 -44 62z"/>
<path d="M3720 3729 c0 -8 10 -20 23 -28 l22 -14 -20 24 c-11 13 -21 26 -22
28 -2 2 -3 -2 -3 -10z"/>
<path d="M3881 3694 c0 -11 3 -14 6 -6 3 7 2 16 -1 19 -3 4 -6 -2 -5 -13z"/>
<path d="M3950 3645 c-7 -14 -10 -28 -7 -32 4 -3 7 1 7 9 0 9 7 21 15 28 12
10 15 7 21 -14 3 -15 4 -40 1 -56 -8 -37 2 -43 27 -17 16 17 17 19 3 14 -13
-5 -17 0 -17 21 0 70 -25 93 -50 47z"/>
<path d="M3131 3564 c-2 -106 -40 -200 -110 -272 -52 -53 -98 -82 -133 -82
-26 0 -58 22 -58 41 0 5 -4 9 -10 9 -16 0 -12 -132 5 -181 17 -46 63 -124 71
-117 2 3 -1 19 -7 37 -15 41 -4 93 24 122 13 13 56 53 97 88 40 36 85 84 101
108 15 24 29 40 32 36 8 -14 -13 -163 -28 -199 -19 -46 -20 -45 11 -34 35 14
35 13 28 -17 -8 -31 -47 -98 -64 -108 -5 -3 -10 -11 -10 -18 0 -28 113 102
145 168 19 38 33 71 31 73 -2 1 -17 -5 -34 -15 -17 -10 -34 -15 -37 -11 -4 3
7 37 23 75 45 102 56 252 15 194 -25 -37 -43 -26 -43 27 0 40 -30 132 -43 132
-2 0 -5 -25 -6 -56z"/>
<path d="M1680 3494 c0 -7 -7 -11 -16 -10 -9 0 -19 -6 -21 -14 -4 -13 -3 -13
6 0 10 13 13 13 26 -4 8 -10 16 -24 18 -30 2 -6 7 -8 11 -5 3 3 0 21 -8 40 -9
19 -15 29 -16 23z"/>
<path d="M1631 3424 c0 -11 3 -14 6 -6 3 7 2 16 -1 19 -3 4 -6 -2 -5 -13z"/>
<path d="M3875 3410 c-3 -5 9 -24 26 -42 l31 -33 -27 35 -28 35 24 6 c23 7 23
7 2 8 -12 1 -24 -3 -28 -9z"/>
<path d="M4073 3395 c2 -11 -2 -26 -10 -33 -7 -7 -10 -18 -6 -24 4 -7 12 1 21
20 9 17 20 33 26 35 6 2 3 3 -6 2 -9 -2 -20 2 -23 9 -3 6 -4 2 -2 -9z"/>
<path d="M4122 3360 c0 -14 2 -19 5 -12 2 6 2 18 0 25 -3 6 -5 1 -5 -13z"/>
<path d="M3945 3330 c3 -6 -3 -10 -14 -10 -12 0 -21 -7 -21 -15 0 -17 66 -85
83 -85 7 0 0 8 -16 18 -28 19 -56 51 -57 65 0 4 9 7 19 7 25 0 36 16 15 24 -8
3 -12 2 -9 -4z"/>
<path d="M1795 3310 c3 -5 8 -10 11 -10 2 0 4 5 4 10 0 6 -5 10 -11 10 -5 0
-7 -4 -4 -10z"/>
<path d="M1554 3275 c-3 -8 -4 -20 -2 -27 3 -7 7 -1 10 15 6 29 1 36 -8 12z"/>
<path d="M1758 3255 c-38 -35 -40 -49 -3 -17 21 19 50 52 44 52 -2 0 -21 -16
-41 -35z"/>
<path d="M1695 3210 c11 -5 27 -9 35 -9 9 0 8 4 -5 9 -11 5 -27 9 -35 9 -9 0
-8 -4 5 -9z"/>
<path d="M3996 3211 c-19 -7 -18 -8 4 -14 13 -3 26 -4 29 -2 2 3 -2 5 -10 6
-8 0 -6 4 6 9 25 11 -2 12 -29 1z"/>
<path d="M1551 3184 c0 -11 3 -14 6 -6 3 7 2 16 -1 19 -3 4 -6 -2 -5 -13z"/>
<path d="M1510 3123 c1 -27 7 -59 15 -73 19 -34 19 -45 -2 -29 -16 13 -17 12
-5 -3 8 -9 20 -14 27 -12 11 5 10 12 -6 37 -20 33 -27 117 -9 117 5 0 17 -11
26 -25 19 -28 40 -24 22 5 -7 10 -15 17 -19 14 -4 -2 -10 0 -14 6 -3 5 -13 10
-21 10 -10 0 -14 -13 -14 -47z"/>
<path d="M3970 3156 c0 -2 8 -10 18 -17 15 -13 16 -12 3 4 -13 16 -21 21 -21
13z"/>
<path d="M3994 3115 c-15 -10 -15 -14 -1 -41 8 -16 26 -38 38 -49 l24 -20 -21
25 c-28 33 -47 70 -40 78 4 3 22 -2 42 -11 19 -10 33 -13 30 -8 -4 5 -2 11 4
13 6 2 -6 8 -25 14 -26 8 -39 8 -51 -1z"/>
<path d="M1716 3073 c-6 -14 -5 -15 5 -6 7 7 10 15 7 18 -3 3 -9 -2 -12 -12z"/>
<path d="M1691 3036 c-6 -8 -25 -19 -42 -26 -16 -7 -28 -15 -25 -17 6 -7 60
23 75 41 8 9 11 16 8 16 -2 0 -10 -6 -16 -14z"/>
<path d="M1481 2996 c-1 -38 33 -116 51 -116 5 0 -1 14 -14 30 -12 17 -25 52
-29 78 -6 46 -6 46 -8 8z"/>
<path d="M4232 3000 c0 -14 2 -19 5 -12 2 6 2 18 0 25 -3 6 -5 1 -5 -13z"/>
<path d="M1665 2990 c-4 -6 1 -7 10 -3 10 3 21 0 26 -8 7 -11 9 -11 9 4 0 18
-34 24 -45 7z"/>
<path d="M4050 2986 c0 -3 9 -10 20 -16 11 -6 20 -8 20 -6 0 3 -9 10 -20 16
-11 6 -20 8 -20 6z"/>
<path d="M4221 2954 c0 -11 3 -14 6 -6 3 7 2 16 -1 19 -3 4 -6 -2 -5 -13z"/>
<path d="M4251 2844 c0 -11 3 -14 6 -6 3 7 2 16 -1 19 -3 4 -6 -2 -5 -13z"/>
<path d="M4035 2769 c-11 -16 -1 -19 13 -3 7 8 8 14 3 14 -5 0 -13 -5 -16 -11z"/>
<path d="M1671 2734 c0 -11 3 -14 6 -6 3 7 2 16 -1 19 -3 4 -6 -2 -5 -13z"/>
<path d="M3335 2686 c-22 -7 -54 -20 -71 -29 -35 -18 -94 -81 -94 -100 0 -7
17 7 36 31 45 53 100 82 171 89 29 3 56 10 59 14 8 13 -55 10 -101 -5z"/>
<path d="M1422 2640 c0 -14 2 -19 5 -12 2 6 2 18 0 25 -3 6 -5 1 -5 -13z"/>
<path d="M4045 2616 c2 -22 9 -44 15 -50 7 -7 8 -2 1 19 -5 17 -12 39 -15 50
-3 11 -3 2 -1 -19z"/>
<path d="M4277 2598 c-4 -21 -22 -53 -40 -72 -46 -49 -46 -68 0 -26 21 19 43
39 48 43 6 5 2 5 -7 2 -16 -6 -16 -5 -2 24 9 17 14 39 12 49 -2 9 -7 1 -11
-20z"/>
<path d="M3337 2586 c-26 -7 -51 -16 -55 -21 -4 -4 2 -5 13 -2 11 3 47 11 79
16 33 6 62 13 64 16 10 9 -53 4 -101 -9z"/>
<path d="M1679 2522 c5 -34 6 -35 9 -8 2 16 0 32 -5 37 -5 5 -7 -7 -4 -29z"/>
<path d="M3195 2500 c-27 -27 -45 -50 -39 -50 5 0 32 23 59 50 27 28 45 50 39
50 -5 0 -32 -22 -59 -50z"/>
<path d="M4312 2510 c0 -14 2 -19 5 -12 2 6 2 18 0 25 -3 6 -5 1 -5 -13z"/>
<path d="M4035 2490 c3 -19 10 -39 15 -44 7 -7 7 -1 1 19 -17 54 -21 61 -16
25z"/>
<path d="M3383 2493 c9 -2 23 -2 30 0 6 3 -1 5 -18 5 -16 0 -22 -2 -12 -5z"/>
<path d="M3223 2449 c-33 -21 -80 -85 -70 -95 3 -3 13 7 23 23 9 15 33 43 53
60 42 38 40 41 -6 12z"/>
<path d="M4074 2409 c8 -11 25 -28 38 -36 15 -11 11 -4 -11 20 -39 41 -49 47
-27 16z"/>
<path d="M3310 2393 c-66 -23 -180 -109 -180 -137 0 -5 24 14 53 41 65 61 78
69 145 77 29 4 62 11 75 16 17 7 11 9 -28 9 -27 -1 -57 -3 -65 -6z"/>
<path d="M2585 2684 c44 -38 146 -104 160 -104 26 0 134 -62 140 -81 4 -10 11
-17 16 -14 23 15 -20 50 -121 99 -61 30 -132 70 -160 90 -58 41 -79 47 -35 10z"/>
<path d="M2572 2585 c13 -29 24 -37 133 -95 95 -50 111 -64 136 -110 13 -26
18 -30 19 -15 0 42 -37 83 -107 116 -37 18 -92 54 -121 81 -60 53 -77 60 -60
23z"/>
<path d="M2576 2434 c-20 -20 -21 -95 -1 -134 8 -15 30 -38 49 -49 41 -26 172
-72 180 -63 13 12 5 85 -14 121 -23 46 -71 96 -113 117 -26 14 -23 9 20 -35
52 -53 93 -124 93 -162 0 -18 -4 -20 -32 -14 -123 27 -168 70 -168 161 0 30 5
54 10 54 6 0 10 5 10 10 0 15 -16 12 -34 -6z"/>
<path d="M2430 2100 c34 -11 60 -11 35 0 -11 5 -29 8 -40 8 -16 0 -15 -2 5 -8z"/>
<path d="M2538 2083 c7 -3 16 -2 19 1 4 3 -2 6 -13 5 -11 0 -14 -3 -6 -6z"/>
<path d="M2698 2013 c7 -3 16 -2 19 1 4 3 -2 6 -13 5 -11 0 -14 -3 -6 -6z"/>
<path d="M3524 2075 c-16 -13 -16 -14 -1 -9 13 5 17 1 17 -15 0 -12 5 -21 10
-21 9 0 7 47 -3 56 -2 2 -12 -3 -23 -11z"/>
<path d="M3434 2025 c8 -8 18 -15 22 -15 3 0 1 7 -6 15 -7 8 -17 15 -22 15 -5
0 -3 -7 6 -15z"/>
<path d="M3478 2028 c8 -8 17 -8 34 0 22 10 21 11 -11 11 -27 1 -32 -2 -23
-11z"/>
<path d="M3360 2026 c0 -2 11 -6 25 -8 14 -3 25 -1 25 3 0 5 -11 9 -25 9 -14
0 -25 -2 -25 -4z"/>
<path d="M3238 2013 c7 -3 16 -2 19 1 4 3 -2 6 -13 5 -11 0 -14 -3 -6 -6z"/>
<path d="M3308 2013 c7 -3 16 -2 19 1 4 3 -2 6 -13 5 -11 0 -14 -3 -6 -6z"/>
<path d="M3138 2002 c-22 -4 -24 -22 -3 -22 8 0 15 5 15 10 0 6 5 10 11 10 5
0 7 -4 4 -10 -3 -5 3 -10 15 -10 12 0 19 4 15 9 -3 5 3 11 12 14 22 5 -45 4
-69 -1z"/>
<path d="M3348 2003 c6 -2 18 -2 25 0 6 3 1 5 -13 5 -14 0 -19 -2 -12 -5z"/>
<path d="M3243 1993 c9 -2 23 -2 30 0 6 3 -1 5 -18 5 -16 0 -22 -2 -12 -5z"/>
<path d="M3308 1993 c7 -3 16 -2 19 1 4 3 -2 6 -13 5 -11 0 -14 -3 -6 -6z"/>
<path d="M2418 1953 c12 -2 32 -2 45 0 12 2 2 4 -23 4 -25 0 -35 -2 -22 -4z"/>
<path d="M2523 1923 c9 -2 23 -2 30 0 6 3 -1 5 -18 5 -16 0 -22 -2 -12 -5z"/>
<path d="M2628 1913 c32 -17 46 -40 16 -29 -9 3 -28 6 -42 7 -24 0 -25 1 -7 9
18 8 17 9 -7 9 -46 1 -34 -26 15 -34 23 -4 50 -12 61 -17 10 -6 22 -6 27 -1
13 13 -33 61 -67 68 l-29 6 33 -18z m52 -43 c0 -5 -2 -10 -4 -10 -3 0 -8 5
-11 10 -3 6 -1 10 4 10 6 0 11 -4 11 -10z"/>
<path d="M2313 1873 c9 -2 25 -2 35 0 9 3 1 5 -18 5 -19 0 -27 -2 -17 -5z"/>
<path d="M2258 1863 c6 -2 18 -2 25 0 6 3 1 5 -13 5 -14 0 -19 -2 -12 -5z"/>
<path d="M3050 1830 c-8 -5 -12 -11 -10 -14 3 -2 14 2 24 10 22 15 10 19 -14
4z"/>
<path d="M2680 947 c0 -16 6 -23 20 -23 14 0 20 7 20 23 0 16 -6 23 -20 23
-14 0 -20 -7 -20 -23z"/>
<path d="M2132 948 c-8 -8 1 -26 38 -68 28 -32 50 -60 50 -64 0 -3 -171 -6
-380 -6 -373 0 -380 0 -380 -20 0 -18 7 -20 85 -20 78 0 85 -2 85 -20 0 -17
-7 -20 -50 -20 -41 0 -56 -5 -75 -25 -14 -13 -25 -36 -25 -50 0 -32 35 -107
60 -130 18 -16 20 -16 26 -2 3 9 -4 30 -16 47 -12 17 -24 49 -27 70 l-6 40 57
0 56 0 0 -85 c0 -69 3 -85 15 -85 13 0 15 21 15 130 l0 130 40 0 40 0 0 -45
c0 -33 -4 -45 -15 -45 -24 0 -17 -33 13 -65 26 -29 27 -29 30 -7 3 18 10 22
43 22 l39 0 0 -60 c0 -54 2 -60 21 -60 19 0 20 5 19 93 -1 50 -1 109 -1 130
l1 37 61 0 60 0 -3 -42 c-3 -45 -22 -62 -33 -29 -7 22 -29 28 -40 12 -5 -10
85 -201 95 -201 3 0 11 4 18 9 11 6 7 20 -17 65 -22 39 -27 56 -17 56 19 0 26
22 26 81 l0 49 35 0 c34 0 35 -1 35 -40 0 -36 -2 -40 -26 -40 -33 0 -30 -33 4
-38 20 -3 22 -9 22 -73 0 -62 2 -69 20 -69 19 0 20 7 20 130 l0 130 35 0 35 0
0 -130 c0 -109 2 -130 15 -130 13 0 15 21 15 130 0 123 1 130 20 130 13 0 20
7 20 20 0 12 -7 20 -17 20 -11 0 -37 28 -62 66 -54 78 -64 87 -79 72z m-282
-223 l0 -45 -40 0 -40 0 0 45 0 45 40 0 40 0 0 -45z"/>
<path d="M2620 931 c0 -4 10 -23 23 -42 32 -48 75 -51 111 -9 14 17 26 38 26
46 0 24 -36 16 -48 -11 -6 -14 -18 -25 -26 -25 -16 0 -46 26 -46 41 0 5 -9 9
-20 9 -11 0 -20 -4 -20 -9z"/>
<path d="M2583 812 c-155 -2 -163 -4 -163 -22 0 -13 7 -20 20 -20 11 0 20 -6
21 -12 3 -32 -4 -73 -12 -76 -16 -6 -10 -38 12 -66 24 -31 39 -33 39 -6 0 17
7 20 40 20 l40 0 0 -60 c0 -47 3 -60 15 -60 13 0 15 21 15 130 l0 130 35 0 35
0 0 -130 c0 -123 1 -130 20 -130 19 0 20 7 20 130 0 123 1 130 20 130 13 0 20
7 20 19 0 11 -3 21 -7 23 -5 2 -81 2 -170 0z m-3 -87 l0 -45 -40 0 -40 0 0 45
0 45 40 0 40 0 0 -45z"/>
</g>
</svg>
